<svg width="20" height="18" viewBox="0 0 20 18" fill="none" xmlns="http://www.w3.org/2000/svg">
<mask id="mask0_381_259" style="mask-type:luminance" maskUnits="userSpaceOnUse" x="0" y="0" width="20" height="18">
<path fill-rule="evenodd" clip-rule="evenodd" d="M0.833008 0.75H19.1789V17.42H0.833008V0.75Z" fill="white"/>
</mask>
<g mask="url(#mask0_381_259)">
<path fill-rule="evenodd" clip-rule="evenodd" d="M10.0116 2.125C9.57527 2.125 9.1866 2.3505 8.96844 2.72908L2.37027 14.247C2.15577 14.6228 2.1576 15.0711 2.37485 15.446C2.5921 15.8209 2.98077 16.0455 3.41435 16.0455H16.5988C17.0314 16.0455 17.4201 15.8209 17.6374 15.446C17.8555 15.0711 17.8574 14.6228 17.641 14.247L11.0548 2.72908C10.8375 2.3505 10.4489 2.125 10.0116 2.125ZM16.5988 17.4205H3.41435C2.48485 17.4205 1.6516 16.9402 1.18502 16.1353C0.718437 15.3314 0.715687 14.3698 1.17677 13.5641L7.77677 2.04525C8.2406 1.234 9.07569 0.75 10.0116 0.75H10.0125C10.9475 0.75 11.7844 1.23492 12.2483 2.04708L18.8354 13.5641C19.2965 14.3698 19.2938 15.3314 18.8272 16.1353C18.3606 16.9402 17.5274 17.4205 16.5988 17.4205Z" fill="#A1A7AE"/>
</g>
<path fill-rule="evenodd" clip-rule="evenodd" d="M10.0029 10.9838C9.62343 10.9838 9.31543 10.6758 9.31543 10.2963V7.45459C9.31543 7.07509 9.62343 6.76709 10.0029 6.76709C10.3824 6.76709 10.6904 7.07509 10.6904 7.45459V10.2963C10.6904 10.6758 10.3824 10.9838 10.0029 10.9838Z" fill="#A1A7AE"/>
<path fill-rule="evenodd" clip-rule="evenodd" d="M10.0052 14.0409C9.49832 14.0409 9.08398 13.6311 9.08398 13.1242C9.08398 12.6173 9.49007 12.2075 9.99607 12.2075H10.0052C10.5122 12.2075 10.9219 12.6173 10.9219 13.1242C10.9219 13.6311 10.5122 14.0409 10.0052 14.0409Z" fill="#A1A7AE"/>
</svg>
