<svg width="18" height="18" viewBox="0 0 18 18" fill="none" xmlns="http://www.w3.org/2000/svg">
<path fill-rule="evenodd" clip-rule="evenodd" d="M5.38783 1.91675C3.27949 1.91675 1.91699 3.36091 1.91699 5.59675V12.4034C1.91699 14.6392 3.27949 16.0834 5.38783 16.0834H12.6112C14.7203 16.0834 16.0837 14.6392 16.0837 12.4034V5.59675C16.0837 3.36091 14.7203 1.91675 12.612 1.91675H5.38783ZM12.6112 17.3334H5.38783C2.56366 17.3334 0.666992 15.3517 0.666992 12.4034V5.59675C0.666992 2.64841 2.56366 0.666748 5.38783 0.666748H12.612C15.4362 0.666748 17.3337 2.64841 17.3337 5.59675V12.4034C17.3337 15.3517 15.4362 17.3334 12.6112 17.3334Z" fill="#0A7815"/>
<path fill-rule="evenodd" clip-rule="evenodd" d="M8.01133 11.6025C7.85216 11.6025 7.69133 11.5417 7.56966 11.4192L5.59133 9.44166C5.34716 9.1975 5.34716 8.8025 5.59133 8.55833C5.83549 8.31416 6.23049 8.31416 6.47466 8.55833L8.01133 10.0933L11.5247 6.58083C11.7688 6.33666 12.1638 6.33666 12.408 6.58083C12.6522 6.825 12.6522 7.22 12.408 7.46416L8.45299 11.4192C8.33133 11.5417 8.17133 11.6025 8.01133 11.6025Z" fill="#0A7815"/>
</svg>
