<svg width="18" height="18" viewBox="0 0 18 18" fill="none" xmlns="http://www.w3.org/2000/svg">
<path fill-rule="evenodd" clip-rule="evenodd" d="M7.00272 11.614C6.84272 11.614 6.68272 11.5531 6.56105 11.4306C6.31689 11.1865 6.31689 10.7915 6.56105 10.5473L10.5544 6.55397C10.7986 6.30981 11.1936 6.30981 11.4377 6.55397C11.6819 6.79814 11.6819 7.19314 11.4377 7.43731L7.44439 11.4306C7.32272 11.5531 7.16272 11.614 7.00272 11.614Z" fill="#DD0A09"/>
<path fill-rule="evenodd" clip-rule="evenodd" d="M10.9974 11.6164C10.8374 11.6164 10.6774 11.5556 10.5558 11.4331L6.5591 7.4356C6.31493 7.19143 6.31493 6.79643 6.5591 6.55227C6.8041 6.3081 7.1991 6.3081 7.44243 6.55227L11.4391 10.5498C11.6833 10.7939 11.6833 11.1889 11.4391 11.4331C11.3174 11.5556 11.1566 11.6164 10.9974 11.6164Z" fill="#DD0A09"/>
<path fill-rule="evenodd" clip-rule="evenodd" d="M5.38783 1.91675C3.27949 1.91675 1.91699 3.36091 1.91699 5.59675V12.4034C1.91699 14.6392 3.27949 16.0834 5.38783 16.0834H12.6112C14.7203 16.0834 16.0837 14.6392 16.0837 12.4034V5.59675C16.0837 3.36091 14.7203 1.91675 12.612 1.91675H5.38783ZM12.6112 17.3334H5.38783C2.56366 17.3334 0.666992 15.3517 0.666992 12.4034V5.59675C0.666992 2.64841 2.56366 0.666748 5.38783 0.666748H12.612C15.4362 0.666748 17.3337 2.64841 17.3337 5.59675V12.4034C17.3337 15.3517 15.4362 17.3334 12.6112 17.3334Z" fill="#DD0A09"/>
</svg>
