<svg width="12" height="14" viewBox="0 0 12 14" fill="none" xmlns="http://www.w3.org/2000/svg">
<path fill-rule="evenodd" clip-rule="evenodd" d="M8.97095 0.921783C7.00042 0.638621 4.99952 0.638621 3.02898 0.921783C2.05198 1.06217 1.29926 1.8551 1.20984 2.83807L1.12519 3.76856C0.929624 5.91841 0.929624 8.08158 1.12519 10.2314L1.20984 11.1619C1.29926 12.1449 2.05198 12.9378 3.02898 13.0782C4.99952 13.3614 7.00042 13.3614 8.97095 13.0782C9.94795 12.9378 10.7007 12.1449 10.7901 11.1619L10.8747 10.2314C11.0703 8.08158 11.0703 5.91841 10.8747 3.76856L10.7901 2.83807C10.7007 1.8551 9.94795 1.06217 8.97095 0.921783ZM4.66663 5C4.66663 4.26362 5.26358 3.66667 5.99996 3.66667C6.73634 3.66667 7.33329 4.26362 7.33329 5C7.33329 5.73638 6.73634 6.33333 5.99996 6.33333C5.26358 6.33333 4.66663 5.73638 4.66663 5ZM3.33329 9.33333C3.33329 8.22876 4.22872 7.33333 5.33329 7.33333H6.66663C7.7712 7.33333 8.66663 8.22876 8.66663 9.33333C8.66663 9.70152 8.36815 10 7.99996 10H3.99996C3.63177 10 3.33329 9.70152 3.33329 9.33333Z" fill="#D9D9D9"/>
</svg>
