<svg width="17" height="17" viewBox="0 0 17 17" fill="none" xmlns="http://www.w3.org/2000/svg">
<path fill-rule="evenodd" clip-rule="evenodd" d="M12.1231 16.7086H5.13747C2.41334 16.7086 0.583008 14.7967 0.583008 11.9514V5.36952C0.583008 2.52427 2.41334 0.612396 5.13747 0.612396H8.09751C8.42526 0.612396 8.69126 0.878396 8.69126 1.20615C8.69126 1.5339 8.42526 1.7999 8.09751 1.7999H5.13747C3.0918 1.7999 1.77051 3.20115 1.77051 5.36952V11.9514C1.77051 14.1198 3.0918 15.5211 5.13747 15.5211H12.1231C14.1688 15.5211 15.4909 14.1198 15.4909 11.9514V8.76261C15.4909 8.43486 15.7569 8.16886 16.0846 8.16886C16.4124 8.16886 16.6784 8.43486 16.6784 8.76261V11.9514C16.6784 14.7967 14.8473 16.7086 12.1231 16.7086Z" fill="#A1A7AE"/>
<path fill-rule="evenodd" clip-rule="evenodd" d="M6.02011 11.2141H8.3769C8.67773 11.2141 8.95956 11.0977 9.17252 10.8847L15.1171 4.94011C15.361 4.69628 15.4956 4.3717 15.4956 4.02653C15.4956 3.68057 15.361 3.3552 15.1171 3.11136L14.1537 2.14791C13.6494 1.6452 12.8292 1.6452 12.3241 2.14791L6.40802 8.06403C6.20298 8.26907 6.08661 8.54141 6.07948 8.83036L6.02011 11.2141ZM8.3769 12.4016H5.41131C5.2514 12.4016 5.09781 12.3367 4.98619 12.2219C4.87456 12.1079 4.81361 11.9535 4.81756 11.7928L4.89198 8.80107C4.90702 8.20574 5.1469 7.64603 5.56806 7.22407H5.56886L11.485 1.30795C12.4524 0.342114 14.0254 0.342114 14.9929 1.30795L15.9563 2.27141C16.4258 2.74007 16.6839 3.36311 16.6831 4.02653C16.6831 4.68995 16.425 5.3122 15.9563 5.78007L10.0117 11.7247C9.57548 12.1609 8.9944 12.4016 8.3769 12.4016Z" fill="#A1A7AE"/>
<path fill-rule="evenodd" clip-rule="evenodd" d="M14.6204 6.85065C14.4684 6.85065 14.3164 6.79286 14.2008 6.67648L10.5861 3.06173C10.3541 2.82977 10.3541 2.45373 10.5861 2.22177C10.818 1.98982 11.1933 1.98982 11.4252 2.22177L15.04 5.83732C15.272 6.06927 15.272 6.44452 15.04 6.67648C14.9244 6.79286 14.7724 6.85065 14.6204 6.85065Z" fill="#A1A7AE"/>
</svg>
