<svg width="26" height="26" viewBox="0 0 26 26" fill="none" xmlns="http://www.w3.org/2000/svg">
<path d="M18.4166 23.0207H7.58326C3.6291 23.0207 1.3541 20.7457 1.3541 16.7915V9.20817C1.3541 5.254 3.6291 2.979 7.58326 2.979H18.4166C22.3708 2.979 24.6458 5.254 24.6458 9.20817V16.7915C24.6458 20.7457 22.3708 23.0207 18.4166 23.0207ZM7.58326 4.604C4.48493 4.604 2.9791 6.10984 2.9791 9.20817V16.7915C2.9791 19.8898 4.48493 21.3957 7.58326 21.3957H18.4166C21.5149 21.3957 23.0208 19.8898 23.0208 16.7915V9.20817C23.0208 6.10984 21.5149 4.604 18.4166 4.604H7.58326Z" fill="#A1A7AE"/>
<path d="M12.9997 13.9425C12.0897 13.9425 11.1689 13.6608 10.4647 13.0866L7.07387 10.3783C6.72721 10.0966 6.66221 9.58747 6.94388 9.2408C7.22555 8.89413 7.73472 8.82914 8.08138 9.1108L11.4722 11.8191C12.2955 12.48 13.693 12.48 14.5164 11.8191L17.9072 9.1108C18.2539 8.82914 18.7739 8.8833 19.0447 9.2408C19.3264 9.58747 19.2722 10.1075 18.9147 10.3783L15.5239 13.0866C14.8305 13.6608 13.9097 13.9425 12.9997 13.9425Z" fill="#A1A7AE"/>
</svg>
