<svg width="21" height="17" viewBox="0 0 21 17" fill="none" xmlns="http://www.w3.org/2000/svg">
<path fill-rule="evenodd" clip-rule="evenodd" d="M10.5 6.23958C9.22541 6.23958 8.18945 7.27649 8.18945 8.55108C8.18945 9.8247 9.22541 10.8607 10.5 10.8607C11.7746 10.8607 12.8115 9.8247 12.8115 8.55108C12.8115 7.27649 11.7746 6.23958 10.5 6.23958ZM10.5 12.2982C8.43287 12.2982 6.75195 10.6172 6.75195 8.55108C6.75195 6.48395 8.43287 4.80208 10.5 4.80208C12.5671 4.80208 14.249 6.48395 14.249 8.55108C14.249 10.6172 12.5671 12.2982 10.5 12.2982Z" fill="#A1A7AE"/>
<mask id="mask0_381_2100" style="mask-type:luminance" maskUnits="userSpaceOnUse" x="0" y="0" width="21" height="17">
<path fill-rule="evenodd" clip-rule="evenodd" d="M0.916992 0.833527H20.0835V16.2675H0.916992V0.833527Z" fill="white"/>
</mask>
<g mask="url(#mask0_381_2100)">
<path fill-rule="evenodd" clip-rule="evenodd" d="M2.42134 8.55032C4.20384 12.4881 7.20629 14.8293 10.5001 14.8303C13.7939 14.8293 16.7963 12.4881 18.5788 8.55032C16.7963 4.61348 13.7939 2.27228 10.5001 2.27132C7.20725 2.27228 4.20384 4.61348 2.42134 8.55032ZM10.502 16.2678H10.4982H10.4972C6.53354 16.2649 2.97429 13.4867 0.975211 8.83399C0.897586 8.65286 0.897586 8.44778 0.975211 8.26665C2.97429 3.6149 6.5345 0.836693 10.4972 0.833818C10.4991 0.83286 10.4991 0.83286 10.5001 0.833818C10.502 0.83286 10.502 0.83286 10.503 0.833818C14.4666 0.836693 18.0259 3.6149 20.025 8.26665C20.1035 8.44778 20.1035 8.65286 20.025 8.83399C18.0268 13.4867 14.4666 16.2649 10.503 16.2678H10.502Z" fill="#A1A7AE"/>
</g>
</svg>
