<svg width="16" height="16" viewBox="0 0 16 16" fill="none" xmlns="http://www.w3.org/2000/svg">
<path d="M10.387 13.1324C8.98036 13.2324 8.98036 15.2724 10.387 15.3724H13.727C14.1337 15.3724 14.5204 15.2257 14.8204 14.9524C15.807 14.0924 15.2804 12.359 13.9804 12.199C13.5137 9.38571 9.44036 10.4524 10.407 13.1324" fill="#074AAC"/>
<path d="M10.387 13.1324C8.98036 13.2324 8.98036 15.2724 10.387 15.3724H13.727C14.1337 15.3724 14.5204 15.2257 14.8204 14.9524C15.807 14.0924 15.2804 12.359 13.9804 12.199C13.5137 9.38571 9.44036 10.4524 10.407 13.1324" fill="#074AAC"/>
<path d="M14.6663 7.38065V10.2273C14.6663 10.4406 14.3263 10.534 14.1797 10.3806C13.8663 10.054 13.473 9.80732 13.0197 9.66732C11.973 9.34065 10.7663 9.66065 10.0063 10.4473C9.52634 10.9606 9.26634 11.6006 9.25301 12.294C9.25301 12.414 9.19301 12.5206 9.09967 12.594C8.61967 12.974 8.32634 13.5673 8.32634 14.2473V14.254C8.32634 14.4673 8.17301 14.6606 7.95967 14.6606H4.89301C2.93301 14.6673 1.33301 13.0673 1.33301 11.1006V4.28065C1.33301 2.65398 2.65301 1.33398 4.27967 1.33398H5.82634C6.91301 1.33398 7.25301 1.68732 7.68634 2.26732L8.61967 3.50732C8.82634 3.78065 8.85301 3.81398 9.23967 3.81398H11.0997C12.6863 3.81398 14.033 4.85398 14.493 6.29398C14.593 6.59398 14.6463 6.90065 14.6597 7.22732C14.6663 7.27398 14.6663 7.33398 14.6663 7.38065Z" fill="#074AAC"/>
</svg>
