<svg width="70" height="60" viewBox="0 0 70 60" fill="none" xmlns="http://www.w3.org/2000/svg">
<path d="M25.2 16.2V44H20.64V31.84H7.56V44H3V16.2H7.56V28.12H20.64V16.2H25.2ZM29.4831 16.2C32.4431 16.2 35.0298 16.7733 37.2431 17.92C39.4831 19.04 41.2031 20.6667 42.4031 22.8C43.6298 24.9067 44.2431 27.3733 44.2431 30.2C44.2431 33.0267 43.6298 35.48 42.4031 37.56C41.2031 39.64 39.4831 41.24 37.2431 42.36C35.0298 43.4533 32.4431 44 29.4831 44H20.4031V16.2H29.4831ZM29.4831 40.28C32.7365 40.28 35.2298 39.4 36.9631 37.64C38.6965 35.88 39.5631 33.4 39.5631 30.2C39.5631 26.9733 38.6965 24.4533 36.9631 22.64C35.2298 20.8267 32.7365 19.92 29.4831 19.92H24.9631V40.28H29.4831Z" fill="#031E46"/>
<path d="M40.48 30.04C40.48 27.32 41.1067 24.88 42.36 22.72C43.64 20.56 45.36 18.88 47.52 17.68C49.7067 16.4533 52.0933 15.84 54.68 15.84C57.64 15.84 60.2667 16.5733 62.56 18.04C64.88 19.48 66.56 21.5333 67.6 24.2H62.12C61.4 22.7333 60.4 21.64 59.12 20.92C57.84 20.2 56.36 19.84 54.68 19.84C52.84 19.84 51.2 20.2533 49.76 21.08C48.32 21.9067 47.1867 23.0933 46.36 24.64C45.56 26.1867 45.16 27.9867 45.16 30.04C45.16 32.0933 45.56 33.8933 46.36 35.44C47.1867 36.9867 48.32 38.1867 49.76 39.04C51.2 39.8667 52.84 40.28 54.68 40.28C56.36 40.28 57.84 39.92 59.12 39.2C60.4 38.48 61.4 37.3867 62.12 35.92H67.6C66.56 38.5867 64.88 40.64 62.56 42.08C60.2667 43.52 57.64 44.24 54.68 44.24C52.0667 44.24 49.68 43.64 47.52 42.44C45.36 41.2133 43.64 39.52 42.36 37.36C41.1067 35.2 40.48 32.76 40.48 30.04Z" fill="#031E46"/>
<path d="M49.89 23.87H56.34L62.43 30.5L56.34 37.13H49.89L56.01 30.5L49.89 23.87Z" fill="#031E46"/>
</svg>
