<svg width="27" height="27" viewBox="0 0 27 27" fill="none" xmlns="http://www.w3.org/2000/svg">
<path d="M13.5 25.6612C12.7238 25.6612 11.9925 25.2675 11.475 24.5812L9.7875 22.3312C9.75375 22.2862 9.61875 22.23 9.5625 22.2187H9C4.30875 22.2187 1.40625 20.9475 1.40625 14.625V9C1.40625 4.0275 4.0275 1.40625 9 1.40625H18C22.9725 1.40625 25.5938 4.0275 25.5938 9V14.625C25.5938 19.5975 22.9725 22.2187 18 22.2187H17.4375C17.3475 22.2187 17.2688 22.2637 17.2125 22.3312L15.525 24.5812C15.0075 25.2675 14.2763 25.6612 13.5 25.6612ZM9 3.09375C4.9725 3.09375 3.09375 4.9725 3.09375 9V14.625C3.09375 19.71 4.8375 20.5312 9 20.5312H9.5625C10.1363 20.5312 10.7888 20.8575 11.1375 21.3187L12.825 23.5687C13.2188 24.0862 13.7813 24.0862 14.175 23.5687L15.8625 21.3187C16.2338 20.8237 16.8188 20.5312 17.4375 20.5312H18C22.0275 20.5312 23.9063 18.6525 23.9063 14.625V9C23.9063 4.9725 22.0275 3.09375 18 3.09375H9Z" fill="#031E46"/>
<path d="M19.125 9.84375H7.875C7.41375 9.84375 7.03125 9.46125 7.03125 9C7.03125 8.53875 7.41375 8.15625 7.875 8.15625H19.125C19.5863 8.15625 19.9688 8.53875 19.9688 9C19.9688 9.46125 19.5863 9.84375 19.125 9.84375Z" fill="#031E46"/>
<path d="M14.625 15.4688H7.875C7.41375 15.4688 7.03125 15.0862 7.03125 14.625C7.03125 14.1637 7.41375 13.7812 7.875 13.7812H14.625C15.0863 13.7812 15.4688 14.1637 15.4688 14.625C15.4688 15.0862 15.0863 15.4688 14.625 15.4688Z" fill="#031E46"/>
</svg>
