<svg width="25" height="25" viewBox="0 0 25 25" fill="none" xmlns="http://www.w3.org/2000/svg">
<path d="M12.5 24.6612C11.7238 24.6612 10.9925 24.2675 10.475 23.5812L8.7875 21.3312C8.75375 21.2862 8.61875 21.23 8.5625 21.2187H8C3.30875 21.2187 0.40625 19.9475 0.40625 13.625V8C0.40625 3.0275 3.0275 0.40625 8 0.40625H17C21.9725 0.40625 24.5938 3.0275 24.5938 8V13.625C24.5938 18.5975 21.9725 21.2187 17 21.2187H16.4375C16.3475 21.2187 16.2688 21.2637 16.2125 21.3312L14.525 23.5812C14.0075 24.2675 13.2763 24.6612 12.5 24.6612ZM8 2.09375C3.9725 2.09375 2.09375 3.9725 2.09375 8V13.625C2.09375 18.71 3.8375 19.5312 8 19.5312H8.5625C9.13625 19.5312 9.78875 19.8575 10.1375 20.3187L11.825 22.5687C12.2188 23.0862 12.7813 23.0862 13.175 22.5687L14.8625 20.3187C15.2338 19.8237 15.8188 19.5312 16.4375 19.5312H17C21.0275 19.5312 22.9063 17.6525 22.9063 13.625V8C22.9063 3.9725 21.0275 2.09375 17 2.09375H8Z" fill="#031E46"/>
</svg>
