<svg width="17" height="16" viewBox="0 0 17 16" fill="none" xmlns="http://www.w3.org/2000/svg">
<path fill-rule="evenodd" clip-rule="evenodd" d="M7.55359 9.73076L10.4487 14.4277C10.5754 14.6335 10.7733 14.6312 10.8533 14.6201C10.9332 14.609 11.1256 14.5599 11.1953 14.3264L14.8155 2.09909C14.8789 1.88296 14.7625 1.73571 14.7103 1.68346C14.6596 1.63121 14.5147 1.51959 14.3049 1.57896L2.06892 5.16205C1.83696 5.23013 1.7863 5.42488 1.77521 5.50484C1.76413 5.58638 1.76096 5.78826 1.96601 5.9173L6.7168 8.88842L10.9142 4.64667C11.1446 4.41392 11.5206 4.41155 11.7542 4.64192C11.9877 4.8723 11.9893 5.24913 11.7589 5.48188L7.55359 9.73076ZM10.7915 15.8123C10.2405 15.8123 9.73542 15.5321 9.43776 15.0508L6.36846 10.0704L1.33663 6.92351C0.794339 6.58388 0.510923 5.97905 0.598798 5.34334C0.685881 4.70763 1.12209 4.20255 1.73484 4.02284L13.9708 0.439756C14.5337 0.27509 15.137 0.431048 15.5518 0.844298C15.9666 1.26151 16.121 1.87109 15.9532 2.43634L12.3329 14.6628C12.1516 15.278 11.6449 15.7126 11.0108 15.7973C10.9364 15.8068 10.8643 15.8123 10.7915 15.8123Z" fill="#A1A7AE"/>
</svg>
