<svg width="26" height="30" viewBox="0 0 26 30" fill="none" xmlns="http://www.w3.org/2000/svg">
<path d="M16.5289 19.9582H16.5417M9.45832 19.9582H9.47107M2.04632 24.6969C2.36507 27.0628 4.32432 28.9172 6.70999 29.0263C8.71599 29.1183 10.7546 29.1665 13 29.1665C15.2454 29.1665 17.284 29.1183 19.29 29.0248C21.6757 28.9172 23.6349 27.0628 23.9537 24.6969C24.1619 23.1528 24.3333 21.5703 24.3333 19.9582C24.3333 18.346 24.1619 16.7636 23.9537 15.2194C23.6349 12.8536 21.6757 10.9992 19.29 10.8901C17.1947 10.7943 15.0975 10.7476 13 10.7498C10.7546 10.7498 8.71599 10.798 6.70999 10.8915C4.32432 10.9992 2.36507 12.8536 2.04632 15.2194C1.83666 16.7636 1.66666 18.346 1.66666 19.9582C1.66666 21.5703 1.83807 23.1528 2.04632 24.6969Z" stroke="#A1A7AE" stroke-width="1.5" stroke-linecap="round" stroke-linejoin="round"/>
<path d="M6.625 10.7499V7.20825C6.625 5.5175 7.29665 3.89599 8.49219 2.70045C9.68774 1.5049 11.3092 0.833252 13 0.833252C14.6908 0.833252 16.3123 1.5049 17.5078 2.70045C18.7033 3.89599 19.375 5.5175 19.375 7.20825V10.7499" stroke="#A1A7AE" stroke-width="1.5" stroke-linecap="round" stroke-linejoin="round"/>
</svg>
