<svg width="13" height="13" viewBox="0 0 13 13" fill="none" xmlns="http://www.w3.org/2000/svg">
<path d="M8.12467 12.3229H4.87467C1.93342 12.3229 0.676758 11.0662 0.676758 8.125V4.875C0.676758 1.93375 1.93342 0.677078 4.87467 0.677078H8.12467C11.0659 0.677078 12.3226 1.93375 12.3226 4.875V8.125C12.3226 11.0662 11.0659 12.3229 8.12467 12.3229ZM4.87467 1.48958C2.37759 1.48958 1.48926 2.37791 1.48926 4.875V8.125C1.48926 10.6221 2.37759 11.5104 4.87467 11.5104H8.12467C10.6218 11.5104 11.5101 10.6221 11.5101 8.125V4.875C11.5101 2.37791 10.6218 1.48958 8.12467 1.48958H4.87467Z" fill="#4D4F51"/>
<path d="M7.55638 12.3229C7.37221 12.3229 7.20969 12.1983 7.16094 12.0142L4.47972 1.18083C4.42555 0.964162 4.56096 0.742085 4.77763 0.687918C4.99429 0.633751 5.21636 0.763753 5.27053 0.985836L7.95179 11.8192C8.00595 12.0358 7.87054 12.2579 7.65388 12.3121C7.62138 12.3175 7.58888 12.3229 7.55638 12.3229Z" fill="#4D4F51"/>
<path d="M1.08301 8.53124C0.904259 8.53124 0.747191 8.41749 0.693025 8.23874C0.628025 8.02208 0.75258 7.79999 0.969247 7.73499L6.13135 6.22916C6.34801 6.16416 6.57009 6.28874 6.63509 6.5054C6.70009 6.72207 6.5755 6.94416 6.35884 7.00916L1.19677 8.51499C1.15885 8.52582 1.12093 8.53124 1.08301 8.53124Z" fill="#4D4F51"/>
</svg>
