<svg width="13" height="13" viewBox="0 0 13 13" fill="none" xmlns="http://www.w3.org/2000/svg">
<path d="M10.5195 6.36458H8.66699C8.44491 6.36458 8.26074 6.18042 8.26074 5.95833V2.17208C8.26074 1.77125 8.41782 1.3975 8.69949 1.11583C8.98116 0.834166 9.35491 0.677082 9.75574 0.677082H9.76116C10.4382 0.682499 11.0774 0.947915 11.5649 1.43C12.0524 1.92292 12.3178 2.57292 12.3178 3.25V4.56083C12.3232 5.63875 11.5974 6.36458 10.5195 6.36458ZM9.07324 5.55208H10.5195C11.1478 5.55208 11.5107 5.18916 11.5107 4.56083V3.25C11.5107 2.78417 11.3266 2.34 10.9962 2.00417C10.6657 1.67917 10.2216 1.495 9.76116 1.48958C9.76116 1.48958 9.76116 1.48958 9.75574 1.48958C9.57699 1.48958 9.40366 1.56 9.27366 1.69C9.14366 1.82 9.07324 1.98791 9.07324 2.17208V5.55208Z" fill="#4D4F51"/>
<path d="M4.87512 12.6371C4.62053 12.6371 4.3822 12.5396 4.20345 12.3554L3.30428 11.4508C3.25553 11.4021 3.1797 11.3967 3.12553 11.44L2.19928 12.1333C1.9122 12.35 1.53303 12.3879 1.20803 12.2254C0.883034 12.0629 0.682617 11.7379 0.682617 11.375V3.25C0.682617 1.61417 1.6197 0.677082 3.25553 0.677082H9.75553C9.97762 0.677082 10.1618 0.861249 10.1618 1.08333C10.1618 1.30542 9.97762 1.48958 9.75553 1.48958C9.38178 1.48958 9.07845 1.79292 9.07845 2.16667V11.375C9.07845 11.7379 8.87803 12.0629 8.55303 12.2254C8.22803 12.3879 7.84886 12.3554 7.56178 12.1388L6.63553 11.4454C6.58137 11.4021 6.50553 11.4129 6.4622 11.4563L5.5522 12.3663C5.36803 12.5396 5.1297 12.6371 4.87512 12.6371ZM3.20137 10.6004C3.45053 10.6004 3.69428 10.6925 3.87845 10.8821L4.77762 11.7867C4.81012 11.8192 4.85345 11.8246 4.87512 11.8246C4.8697 11.8138 4.94012 11.8192 4.97262 11.7867L5.88262 10.8767C6.21845 10.5408 6.74928 10.5083 7.12303 10.7954L8.04386 11.4833C8.10345 11.5267 8.15762 11.5104 8.1847 11.4942C8.21178 11.4779 8.26053 11.4454 8.26053 11.375V2.16667C8.26053 1.92292 8.32012 1.69 8.42303 1.48958H3.25012C2.04762 1.48958 1.4897 2.0475 1.4897 3.25V11.375C1.4897 11.4508 1.53845 11.4833 1.56553 11.4996C1.59803 11.5158 1.6522 11.5267 1.70637 11.4833L2.63262 10.79C2.80053 10.6654 3.00095 10.6004 3.20137 10.6004Z" fill="#4D4F51"/>
<path d="M6.36491 5.82292H3.38574C3.16366 5.82292 2.97949 5.63875 2.97949 5.41667C2.97949 5.19458 3.16366 5.01042 3.38574 5.01042H6.36491C6.58699 5.01042 6.77116 5.19458 6.77116 5.41667C6.77116 5.63875 6.58699 5.82292 6.36491 5.82292Z" fill="#4D4F51"/>
</svg>
