<svg width="12" height="12" viewBox="0 0 12 12" fill="none" xmlns="http://www.w3.org/2000/svg">
<path d="M1.33369 4.57365C2.61129 7.35625 4.88463 9.56858 7.71099 10.7679L8.16405 10.9698C9.20059 11.4316 10.4191 11.0807 11.0513 10.1384L11.6434 9.25593C11.8359 8.96902 11.7773 8.58258 11.5084 8.36564L9.50046 6.74578C9.20554 6.50785 8.77186 6.56327 8.54625 6.86771L7.92509 7.70589C6.33122 6.91966 5.03719 5.62562 4.25096 4.03175L5.08912 3.4106C5.39356 3.18498 5.44898 2.75131 5.21106 2.45639L3.59114 0.448425C3.37425 0.17957 2.98791 0.120926 2.701 0.313305L1.81244 0.909103C0.864209 1.54491 0.515288 2.77348 0.987776 3.81277L1.33317 4.57252L1.33369 4.57365Z" fill="#D9D9D9"/>
</svg>
