<svg width="22" height="22" viewBox="0 0 22 22" fill="none" xmlns="http://www.w3.org/2000/svg">
<path d="M11 20.8541C10.285 20.8541 9.58835 20.4874 9.11168 19.8458L8.18584 18.6083C7.99334 18.3516 7.73668 18.2049 7.46168 18.1866C7.18668 18.1774 6.91168 18.2966 6.69168 18.5258L6.18751 18.0583L6.69168 18.5258C5.37168 19.9374 4.35418 19.8274 3.86835 19.6349C3.37335 19.4424 2.53918 18.8099 2.53918 16.7749V6.45325C2.53918 2.38325 3.71252 1.14575 7.55335 1.14575H14.4833C18.3242 1.14575 19.4975 2.38325 19.4975 6.45325V16.7749C19.4975 18.8008 18.6634 19.4333 18.1684 19.6349C17.6825 19.8274 16.6742 19.9374 15.345 18.5258C15.125 18.2874 14.85 18.1683 14.5658 18.1866C14.2908 18.2049 14.025 18.3516 13.8325 18.6083L12.9067 19.8458C12.4117 20.4874 11.715 20.8541 11 20.8541ZM7.40668 16.8024C7.44335 16.8024 7.48919 16.8024 7.52585 16.8024C8.20419 16.8391 8.84584 17.1966 9.27668 17.7741L10.2025 19.0116C10.6517 19.6074 11.3392 19.6074 11.7883 19.0116L12.7142 17.7741C13.1542 17.1966 13.7867 16.8391 14.4742 16.8024C15.1617 16.7658 15.8308 17.0499 16.3258 17.5816C17.0225 18.3241 17.4717 18.4157 17.6367 18.3516C17.8567 18.2599 18.095 17.7283 18.095 16.7749V6.45325C18.095 3.14409 17.5175 2.52075 14.4559 2.52075H7.52585C4.46419 2.52075 3.88669 3.14409 3.88669 6.45325V16.7749C3.88669 17.7374 4.12502 18.2691 4.34502 18.3516C4.50085 18.4157 4.95918 18.3241 5.65585 17.5816C6.16001 17.0774 6.77418 16.8024 7.40668 16.8024Z" fill="#A1A7AE"/>
<path d="M13.5209 9.85425H8.47919C8.10335 9.85425 7.79169 9.54258 7.79169 9.16675C7.79169 8.79091 8.10335 8.47925 8.47919 8.47925H13.5209C13.8967 8.47925 14.2084 8.79091 14.2084 9.16675C14.2084 9.54258 13.8967 9.85425 13.5209 9.85425Z" fill="#A1A7AE"/>
</svg>
