<svg width="26" height="26" viewBox="0 0 26 26" fill="none" xmlns="http://www.w3.org/2000/svg">
<path d="M13 14.3649C9.56587 14.3649 6.77087 11.4581 6.77087 7.88654C6.77087 4.315 9.56587 1.4082 13 1.4082C16.4342 1.4082 19.2292 4.315 19.2292 7.88654C19.2292 11.4581 16.4342 14.3649 13 14.3649ZM13 3.0982C10.465 3.0982 8.39587 5.25014 8.39587 7.88654C8.39587 10.5229 10.465 12.6749 13 12.6749C15.535 12.6749 17.6042 10.5229 17.6042 7.88654C17.6042 5.25014 15.535 3.0982 13 3.0982Z" fill="#A1A7AE"/>
<path d="M17.1383 25.6318C16.7266 25.6318 16.3366 25.4741 16.055 25.1812C15.7191 24.8319 15.5675 24.3249 15.6433 23.7954L15.8491 22.2744C15.9033 21.8801 16.1308 21.4181 16.4017 21.1252L20.2366 17.1368C21.775 15.5369 23.1292 16.4495 23.79 17.1368C24.3533 17.7227 24.6458 18.3536 24.6458 18.9845C24.6458 19.6267 24.3642 20.2238 23.79 20.821L19.955 24.8094C19.6841 25.0911 19.2292 25.3277 18.85 25.384L17.3875 25.598C17.3008 25.6205 17.225 25.6318 17.1383 25.6318ZM22.0025 17.9367C21.8075 17.9367 21.6341 18.0719 21.385 18.3311L17.55 22.3194C17.5175 22.3532 17.4633 22.4659 17.4633 22.511L17.2683 23.9193L18.6225 23.7165C18.6658 23.7052 18.7741 23.6489 18.8066 23.6151L22.6417 19.6267C22.815 19.4464 23.0208 19.1873 23.0208 18.9845C23.0208 18.8155 22.8908 18.5789 22.6417 18.3311C22.3817 18.0607 22.1866 17.9367 22.0025 17.9367Z" fill="#A1A7AE"/>
<path d="M22.6635 21.6543C22.5876 21.6543 22.5118 21.6431 22.4468 21.6206C21.0168 21.2037 19.8793 20.0207 19.4785 18.5335C19.3593 18.0829 19.6085 17.6209 20.0418 17.497C20.4752 17.3731 20.9193 17.6322 21.0385 18.0828C21.2876 19.0067 21.9918 19.739 22.8802 19.9982C23.3135 20.1221 23.5627 20.5953 23.4435 21.0347C23.346 21.4065 23.021 21.6543 22.6635 21.6543Z" fill="#A1A7AE"/>
<path d="M3.69434 25.6316C3.25017 25.6316 2.88184 25.2485 2.88184 24.7866C2.88184 19.9757 7.42103 16.0549 13.0002 16.0549C14.181 16.0549 15.351 16.2352 16.4452 16.5732C16.8785 16.7084 17.1169 17.1816 16.9869 17.621C16.8569 18.0717 16.4019 18.3195 15.9794 18.1843C15.026 17.8914 14.0294 17.7337 13.0002 17.7337C8.3202 17.7337 4.50684 20.8883 4.50684 24.7753C4.50684 25.2485 4.1385 25.6316 3.69434 25.6316Z" fill="#A1A7AE"/>
</svg>
